<svg xmlns="http://www.w3.org/2000/svg" viewBox="0 0 200 40" fill="none">
  <defs>
    <linearGradient id="lg" x1="0%" y1="0%" x2="100%" y2="100%">
      <stop offset="0%" stop-color="#00f0ff"/>
      <stop offset="100%" stop-color="#22ff88"/>
    </linearGradient>
  </defs>
  <!-- Icon -->
  <rect x="2" y="4" width="32" height="32" rx="7" fill="#0a0a0f"/>
  <circle cx="18" cy="20" r="3" fill="#22ff88"/>
  <path d="M12.5 25.5a8 8 0 0 1 0-11" stroke="url(#lg)" stroke-width="1.8" fill="none" stroke-linecap="round"/>
  <path d="M23.5 14.5a8 8 0 0 1 0 11" stroke="url(#lg)" stroke-width="1.8" fill="none" stroke-linecap="round"/>
  <path d="M9.5 28.5a13 13 0 0 1 0-17" stroke="#00f0ff" stroke-width="1.3" fill="none" stroke-linecap="round" opacity="0.5"/>
  <path d="M26.5 11.5a13 13 0 0 1 0 17" stroke="#00f0ff" stroke-width="1.3" fill="none" stroke-linecap="round" opacity="0.5"/>
  <path d="M10 20h5M21 20h5" stroke="#00f0ff" stroke-width="0.8" opacity="0.3" stroke-linecap="round"/>
  <path d="M18 12v5M18 23v5" stroke="#00f0ff" stroke-width="0.8" opacity="0.3" stroke-linecap="round"/>
  <!-- Text -->
  <text x="42" y="27" font-family="Inter, system-ui, -apple-system, sans-serif" font-size="20" font-weight="700" letter-spacing="-0.5">
    <tspan fill="currentColor">Career</tspan><tspan fill="url(#lg)">Pulse</tspan>
  </text>
</svg>
